<?xml version="1.0" standalone="no"?>
<!DOCTYPE svg PUBLIC "-//W3C//DTD SVG 20010904//EN"
 "http://www.w3.org/TR/2001/REC-SVG-20010904/DTD/svg10.dtd">
<svg version="1.0" xmlns="http://www.w3.org/2000/svg"
 width="1280.000000pt" height="1061.000000pt" viewBox="0 0 1280.000000 1061.000000"
 preserveAspectRatio="xMidYMid meet">

<g transform="translate(0.000000,1061.000000) scale(0.100000,-0.100000)"
fill="#000000" stroke="none">
<path d="M4640 10005 c-594 -100 -1037 -560 -1123 -1165 l-12 -82 -93 -33
c-437 -156 -757 -538 -838 -1000 -20 -110 -14 -386 10 -480 24 -93 23 -96 -47
-134 -285 -155 -541 -441 -667 -746 -131 -317 -160 -661 -80 -969 30 -118 102
-306 147 -387 l28 -48 -46 -48 c-203 -211 -339 -475 -411 -793 -20 -93 -23
-130 -23 -325 1 -189 4 -234 23 -322 73 -337 206 -579 451 -824 127 -126 269
-233 400 -299 l57 -28 12 -129 c12 -129 54 -324 92 -421 47 -122 143 -291 219
-387 18 -22 69 -78 114 -124 203 -208 436 -338 727 -408 161 -38 466 -43 633
-10 5 1 24 -34 42 -78 43 -110 106 -205 201 -301 203 -205 423 -305 709 -321
206 -11 449 62 630 192 66 47 212 191 249 245 77 115 146 293 165 433 15 109
15 7697 0 7817 -75 598 -528 1071 -1128 1175 -101 18 -336 18 -441 0z m396
-280 c349 -60 628 -269 789 -592 24 -48 57 -133 72 -188 l28 -100 0 -3915 c0
-3779 -1 -3917 -18 -3975 -11 -33 -38 -98 -60 -145 -34 -69 -58 -102 -132
-176 -85 -86 -96 -93 -200 -136 -134 -56 -202 -71 -320 -70 -168 1 -349 62
-466 158 -67 54 -169 176 -169 201 0 7 -9 27 -20 45 -11 18 -43 103 -71 188
-27 85 -51 156 -53 157 -1 2 -72 -13 -157 -33 -197 -46 -401 -57 -548 -30
-476 88 -846 429 -966 890 -27 106 -45 266 -45 411 l0 90 -117 55 c-212 99
-318 174 -460 323 -109 115 -162 192 -227 328 -102 212 -142 403 -132 634 15
376 152 671 445 959 61 60 111 111 111 114 0 2 -15 30 -34 61 -71 117 -88 149
-130 236 -98 202 -131 362 -123 590 13 341 155 653 400 881 106 98 184 150
358 239 l157 80 -24 75 c-64 204 -79 287 -78 445 1 181 18 256 97 420 83 171
206 313 360 413 97 63 192 103 348 145 l124 33 11 150 c21 267 83 440 228 635
231 309 637 470 1022 404z"/>
<path d="M4025 7054 c-60 -19 -112 -38 -116 -42 -3 -4 -14 -55 -24 -114 -10
-59 -21 -110 -24 -115 -3 -4 -24 -21 -46 -37 -22 -16 -54 -42 -70 -57 -29 -28
-34 -28 -155 -31 l-125 -3 -58 -108 -59 -107 71 -99 70 -99 -9 -58 c-6 -33
-10 -78 -10 -101 0 -39 -5 -46 -85 -121 -47 -43 -85 -85 -85 -93 0 -8 16 -63
34 -124 l34 -110 117 -19 117 -19 38 -51 c20 -28 49 -62 63 -75 26 -23 26 -24
20 -140 l-6 -117 112 -62 111 -61 102 69 c102 69 103 69 148 60 25 -5 68 -9
97 -10 l51 0 78 -87 c43 -49 80 -90 81 -92 2 -3 55 13 119 34 86 29 118 44
124 60 5 11 17 65 27 120 16 90 21 101 44 113 15 6 50 33 78 58 l52 47 117 -7
117 -7 55 103 c30 57 56 109 58 116 2 6 -26 55 -63 107 l-66 94 11 63 c5 35
10 79 10 98 0 32 11 46 87 123 l86 87 -33 112 c-18 62 -36 117 -40 121 -4 4
-58 17 -121 28 -92 16 -117 24 -129 42 -8 12 -37 48 -64 81 l-49 59 7 116 6
116 -113 59 -113 60 -95 -66 -95 -67 -104 12 -105 12 -79 83 c-44 45 -82 82
-85 81 -3 -1 -55 -16 -116 -35z m271 -424 c57 0 136 -8 187 -19 86 -18 88 -18
111 0 33 26 36 24 36 -17 0 -32 8 -44 63 -94 34 -32 89 -99 122 -149 42 -64
66 -91 80 -91 41 0 49 -15 21 -43 -25 -25 -26 -31 -26 -139 -1 -73 -7 -140
-19 -188 -17 -73 -17 -76 1 -105 25 -42 23 -48 -14 -42 -30 5 -40 -1 -103 -63
-38 -38 -106 -93 -150 -122 -58 -39 -81 -61 -83 -79 -6 -38 -21 -47 -41 -23
-15 19 -31 22 -136 27 -66 3 -153 13 -193 22 -66 16 -74 16 -97 1 -37 -24 -48
-21 -40 15 7 29 1 37 -68 108 -41 42 -98 111 -126 154 -40 59 -57 77 -75 77
-34 0 -39 11 -16 35 17 18 20 38 24 141 2 65 11 154 21 196 l18 76 -23 29 -22
28 38 3 c32 3 51 16 114 76 42 39 108 92 148 117 51 31 74 51 78 69 12 54 13
55 42 27 27 -26 34 -27 128 -27z"/>
<path d="M4223 6415 c-90 -25 -184 -100 -224 -178 -80 -154 -55 -321 65 -441
129 -129 308 -149 459 -53 61 40 98 80 135 151 25 46 27 61 27 161 0 132 -16
176 -95 259 -92 98 -237 138 -367 101z m137 -280 c83 -43 57 -165 -35 -165
-91 0 -118 120 -37 164 34 19 37 19 72 1z"/>
<path d="M3495 4967 c-61 -18 -116 -36 -122 -40 -6 -4 -19 -58 -28 -120 l-18
-113 -79 -62 -78 -62 -120 0 -119 0 -46 -85 c-79 -144 -79 -128 -1 -236 45
-64 65 -100 62 -114 -3 -11 -8 -57 -12 -103 l-7 -83 -67 -65 c-38 -36 -76 -71
-86 -78 -17 -13 -16 -20 17 -131 26 -88 39 -119 54 -126 11 -4 64 -15 117 -25
l98 -16 65 -82 65 -81 -1 -112 c-1 -61 2 -116 5 -122 4 -5 52 -35 108 -65
l102 -54 100 68 c100 68 102 68 146 60 25 -5 68 -9 95 -10 50 0 52 -1 130 -80
93 -94 93 -94 235 -51 l95 28 20 117 20 116 60 47 c33 26 69 55 79 65 17 16
33 17 136 11 l116 -6 62 113 61 112 -69 102 c-69 100 -69 101 -60 146 5 25 9
68 10 96 0 50 1 51 86 134 97 95 94 78 47 230 l-29 95 -119 22 c-86 15 -121
26 -128 38 -5 10 -34 47 -64 82 l-55 65 3 116 4 115 -109 60 c-75 42 -112 58
-122 51 -7 -5 -51 -35 -96 -67 l-84 -58 -99 7 -100 7 -85 88 -85 88 -110 -32z
m257 -427 c63 0 136 -8 188 -19 83 -19 86 -19 116 0 36 22 44 17 44 -24 0 -23
15 -46 68 -101 37 -40 89 -106 115 -148 41 -65 53 -77 82 -82 40 -8 42 -12 15
-41 -17 -18 -20 -39 -24 -140 -2 -66 -11 -147 -20 -180 -20 -74 -20 -99 -1
-115 26 -22 18 -40 -14 -34 -25 5 -37 -2 -97 -61 -38 -38 -107 -93 -154 -124
-74 -49 -85 -61 -88 -89 -4 -37 -12 -40 -36 -13 -14 15 -37 19 -139 24 -67 2
-154 13 -193 23 -71 17 -71 17 -102 -5 -34 -24 -48 -15 -38 25 6 22 -4 36 -67
101 -41 42 -94 109 -118 149 -31 53 -51 76 -69 80 -54 12 -55 13 -27 42 26 27
27 33 27 138 0 60 7 145 16 191 16 81 16 82 -5 112 l-22 31 41 0 c38 0 47 6
108 68 37 38 104 92 150 121 52 34 82 60 82 71 0 10 3 26 7 36 6 15 9 14 29
-9 22 -26 27 -27 126 -27z"/>
<path d="M3661 4318 c-81 -28 -165 -102 -206 -185 -28 -53 -30 -67 -30 -163 0
-93 3 -112 27 -162 93 -199 347 -274 527 -158 196 127 237 377 90 559 -91 114
-260 158 -408 109z m165 -274 c83 -39 51 -164 -42 -164 -92 0 -116 135 -30
170 30 12 34 12 72 -6z"/>
<path d="M7899 10010 c-295 -47 -540 -172 -755 -385 -197 -196 -308 -401 -377
-695 l-22 -95 -3 -3860 c-2 -2883 0 -3883 8 -3950 28 -215 120 -409 265 -556
138 -140 246 -212 405 -267 273 -95 549 -77 805 53 113 58 179 107 285 216 91
92 147 177 195 296 17 40 35 74 40 74 6 0 47 -5 93 -11 123 -18 403 -8 522 18
656 142 1128 692 1175 1369 l8 103 75 40 c148 80 325 215 430 328 114 123 232
301 298 451 133 304 171 636 108 971 -49 267 -204 576 -389 778 l-67 72 45 93
c132 272 173 464 164 757 -7 225 -38 369 -124 569 -129 299 -376 575 -651 728
-37 20 -70 41 -73 45 -3 5 2 41 12 79 83 334 14 692 -194 1005 -54 81 -152
191 -247 276 -82 73 -242 162 -385 213 -88 32 -90 34 -93 66 -12 140 -70 337
-142 480 -58 115 -74 142 -146 235 -187 242 -474 421 -784 489 -88 19 -395 29
-481 15z m461 -303 c243 -62 450 -202 600 -407 141 -192 199 -368 216 -651 l6
-115 112 -28 c229 -57 375 -135 512 -271 98 -97 149 -165 203 -272 53 -104 78
-177 96 -282 30 -169 16 -310 -53 -547 l-39 -131 136 -67 c170 -85 273 -153
377 -250 323 -300 465 -751 375 -1192 -32 -157 -80 -264 -245 -549 l-18 -30
134 -135 c188 -191 280 -331 351 -536 54 -156 71 -264 71 -454 0 -244 -42
-415 -153 -625 -59 -113 -107 -178 -212 -289 -118 -125 -229 -204 -412 -295
l-158 -79 -5 -149 c-6 -186 -18 -278 -50 -390 -124 -429 -484 -757 -927 -844
-163 -32 -324 -27 -537 17 -96 20 -181 37 -189 38 -8 0 -19 -19 -28 -49 -37
-131 -88 -275 -115 -324 -84 -159 -201 -259 -379 -325 -197 -72 -385 -67 -579
16 -100 43 -119 56 -206 143 -78 77 -97 103 -136 185 -26 52 -54 127 -65 165
-17 67 -18 211 -18 3935 0 3708 1 3868 18 3950 43 200 142 387 287 543 137
148 366 272 565 306 33 6 71 13 85 15 66 12 288 -4 380 -27z"/>
<path d="M8193 6010 c-334 -60 -599 -415 -562 -751 33 -289 218 -612 579
-1008 109 -119 348 -342 489 -455 l122 -98 122 99 c407 327 781 753 938 1065
177 352 173 629 -11 878 -152 205 -396 308 -629 266 -135 -24 -237 -79 -339
-182 -46 -47 -85 -84 -87 -82 -2 2 -19 23 -39 46 -139 167 -379 258 -583 222z
m226 -305 c114 -53 216 -182 348 -442 26 -51 51 -93 55 -93 4 0 27 39 51 88
108 215 162 298 244 372 80 73 140 100 225 100 84 0 150 -24 223 -80 100 -77
165 -205 165 -324 0 -232 -221 -595 -587 -963 -118 -119 -309 -293 -322 -293
-10 0 -125 102 -246 219 -408 393 -639 743 -661 1003 -13 145 50 274 183 375
87 67 225 83 322 38z"/>
</g>
</svg>
