<svg xmlns="http://www.w3.org/2000/svg" xmlns:xlink="http://www.w3.org/1999/xlink" viewBox="0,0,256,256" width="48px" height="48px" fill-rule="nonzero"><defs><linearGradient x1="18.188" y1="6.001" x2="29.446" y2="40.865" gradientUnits="userSpaceOnUse" id="color-1"><stop offset="0" stop-color="#008080"></stop><stop offset="1" stop-color="#008080"></stop></linearGradient></defs><g fill="none" fill-rule="nonzero" stroke="none" stroke-width="1" stroke-linecap="butt" stroke-linejoin="miter" stroke-miterlimit="10" stroke-dasharray="" stroke-dashoffset="0" font-family="none" font-weight="none" font-size="none" text-anchor="none" style="mix-blend-mode: normal"><g transform="scale(5.33333,5.33333)"><path d="M40,6h-32c-1.105,0 -2,0.895 -2,2v32c0,1.105 0.895,2 2,2h32c1.105,0 2,-0.895 2,-2v-32c0,-1.105 -0.895,-2 -2,-2z" fill="url(#color-1)"></path><path d="M36.937,17.041c0.046,-0.151 0.068,-0.291 0.062,-0.416c-0.015,-0.362 -0.264,-0.625 -0.85,-0.625h-4.154c-0.661,0 -0.966,0.4 -1.144,0.801c0,0 -1.72,3.684 -2.122,4.449c-0.61,0.641 -1.005,1.361 -1.335,1.361c-0.177,0 -0.394,0.175 -0.394,-0.412v-5.185c0,-0.694 -0.173,-1.014 -0.732,-1.014h-6.649c-0.407,0 -0.619,0.32 -0.619,0.641c0,0.667 0.898,2.827 1,4.696v0.895c0,0.636 0.101,1.24 -0.137,1.24c-0.29,0 -1.304,-2.242 -2.161,-6.404c-0.254,-0.774 -0.508,-1.068 -1.169,-1.068h-4.643c-0.763,0 -0.89,0.374 -0.89,0.774c0,1.612 0.844,6.292 4.119,10.774c2.375,3.25 6.26,5.452 9.03,5.452c1.237,0 2.85,-0.02 2.85,-1.88c0,-1.86 -0.02,-2.835 0.164,-2.835c0.238,0 0.35,0.109 1.85,1.859c1.731,2.017 2.154,2.856 3.146,2.856h3.87c0.608,0 0.957,-0.255 0.971,-0.75c0,-1.275 -0.374,-2.013 -2.25,-4.763c-0.615,-0.743 -1.75,-1.996 -1.75,-2.5c0,-0.567 3.189,-4.876 3.937,-7.946z" fill="#000000" opacity="0.05"></path><path d="M36.437,17.541c0.046,-0.151 0.068,-0.291 0.062,-0.416c-0.015,-0.362 -0.264,-0.625 -0.85,-0.625h-3.386c-0.661,0 -0.966,0.4 -1.144,0.801c0,0 -1.676,3.522 -2.818,5.012c-0.61,0.641 -0.962,0.993 -1.292,0.993c-0.177,0 -0.509,-0.019 -0.509,-0.606v-5.185c0,-0.694 -0.173,-1.014 -0.732,-1.014h-5.649c-0.407,0 -0.619,0.32 -0.619,0.641c0,0.667 0.898,1.827 1,3.696v2.259c0,0.758 -0.026,1.14 -0.31,1.14c-0.59,0 -1.973,-2.621 -2.988,-6.668c-0.254,-0.774 -0.508,-1.068 -1.169,-1.068h-3.643c-0.763,0 -0.89,0.374 -0.89,0.774c0,1.167 0.722,5.455 3.997,9.937c2.375,3.25 5.882,5.289 8.652,5.289c1.457,0 2.35,-0.221 2.35,-1.487v-2.182c0.001,-0.801 0.082,-1.189 0.441,-1.189c0.31,0 0.754,0.179 2.254,1.929c1.73,2.018 2.099,2.928 3.091,2.928h3.244c0.608,0 0.957,-0.255 0.971,-0.75c0,-0.986 -0.687,-2.236 -2.25,-4.257c-0.615,-0.743 -1.75,-1.927 -1.75,-2.5c0,-0.573 2.845,-3.933 3.937,-7.452z" fill="#000000" opacity="0.07"></path><path d="M35.937,18.041c0.046,-0.151 0.068,-0.291 0.062,-0.416c-0.015,-0.362 -0.264,-0.625 -0.85,-0.625h-2.618c-0.661,0 -0.966,0.4 -1.144,0.801c0,0 -1.632,3.359 -3.513,5.574c-0.61,0.641 -0.92,0.625 -1.25,0.625c-0.177,0 -0.624,-0.214 -0.624,-0.801v-5.185c0,-0.694 -0.173,-1.014 -0.732,-1.014h-4.649c-0.407,0 -0.619,0.32 -0.619,0.641c0,0.667 0.898,0.827 1,2.696v3.623c0,0.88 -0.153,1.04 -0.483,1.04c-0.89,0 -2.642,-3 -3.815,-6.932c-0.254,-0.774 -0.508,-1.068 -1.169,-1.068h-2.643c-0.763,0 -0.89,0.374 -0.89,0.774c0,0.721 0.6,4.619 3.875,9.101c2.375,3.25 5.504,5.125 8.274,5.125c1.678,0 1.85,-0.427 1.85,-1.094v-2.972c0.001,-0.801 0.184,-0.934 0.718,-0.934c0.381,0 1.158,0.25 2.658,2c1.73,2.018 2.044,3 3.036,3h2.618c0.608,0 0.957,-0.255 0.971,-0.75c0.003,-0.126 -0.015,-0.267 -0.056,-0.424c-0.194,-0.576 -1.084,-1.984 -2.194,-3.326c-0.615,-0.743 -1.222,-1.479 -1.501,-1.879c-0.187,-0.261 -0.258,-0.445 -0.249,-0.621c0.009,-0.185 0.105,-0.361 0.249,-0.607c-0.026,0 3.358,-4.751 3.688,-6.352z" fill="#ffffff"></path></g></g></svg>